<svg xmlns="http://www.w3.org/2000/svg" version="1.1" xmlns:xlink="http://www.w3.org/1999/xlink" viewBox="0 0 200 200" width="200" height="200"><metadata><rdf:RDF xmlns:rdf="http://www.w3.org/1999/02/22-rdf-syntax-ns#" xmlns:dc="http://purl.org/dc/elements/1.1/"><rdf:Description><dc:creator>RealFaviconGenerator</dc:creator><dc:source>https://realfavicongenerator.net</dc:source></rdf:Description></rdf:RDF></metadata><rect width="200" height="200" fill="url('#gradient')"></rect><defs><linearGradient id="gradient" gradientTransform="rotate(102 0.5 0.5)"><stop offset="0%" stop-color="#1f3180"></stop><stop offset="100%" stop-color="#707588"></stop></linearGradient></defs><g><g fill="#c5bed0" transform="matrix(2.0053855569155448,0,0,2.0053855569155448,17.84758327299116,114.7331895171064)" stroke="#7b2d72" stroke-width="0.95"><path d="M8.87 0L6.36-5.02L4.50-5.02L4.50 0L1.07 0L1.07-14.22L6.67-14.22Q9.20-14.22 10.63-13.10Q12.05-11.97 12.05-9.92L12.05-9.92Q12.05-8.44 11.45-7.46Q10.85-6.48 9.57-5.88L9.57-5.88L12.54-0.15L12.54 0L8.87 0ZM4.50-11.57L4.50-7.67L6.67-7.67Q7.65-7.67 8.14-8.18Q8.63-8.69 8.63-9.61Q8.63-10.53 8.13-11.05Q7.64-11.57 6.67-11.57L6.67-11.57L4.50-11.57ZM19.08 0.20L19.08 0.20Q16.65 0.20 15.15-1.25Q13.64-2.71 13.64-5.03L13.64-5.03L13.64-5.30Q13.64-6.92 14.24-8.16Q14.84-9.40 16.00-10.08Q17.15-10.76 18.73-10.76L18.73-10.76Q20.96-10.76 22.25-9.38Q23.54-8.00 23.54-5.53L23.54-5.53L23.54-4.25L16.99-4.25Q17.17-3.36 17.76-2.85Q18.36-2.34 19.31-2.34L19.31-2.34Q20.87-2.34 21.75-3.44L21.75-3.44L23.25-1.66Q22.64-0.81 21.51-0.31Q20.38 0.20 19.08 0.20ZM18.71-8.22L18.71-8.22Q17.27-8.22 16.99-6.31L16.99-6.31L20.31-6.31L20.31-6.56Q20.33-7.35 19.91-7.79Q19.49-8.22 18.71-8.22ZM30.39-2.97L30.39-2.97Q30.39-3.39 29.95-3.64Q29.51-3.90 28.28-4.17Q27.05-4.44 26.25-4.89Q25.45-5.33 25.03-5.97Q24.61-6.60 24.61-7.42L24.61-7.42Q24.61-8.88 25.81-9.82Q27.01-10.76 28.96-10.76L28.96-10.76Q31.04-10.76 32.31-9.81Q33.58-8.87 33.58-7.32L33.58-7.32L30.28-7.32Q30.28-8.59 28.95-8.59L28.95-8.59Q28.43-8.59 28.08-8.31Q27.72-8.02 27.72-7.59L27.72-7.59Q27.72-7.15 28.15-6.88Q28.58-6.60 29.53-6.43Q30.47-6.25 31.18-6.01L31.18-6.01Q33.56-5.19 33.56-3.07L33.56-3.07Q33.56-1.62 32.28-0.71Q31.00 0.20 28.96 0.20L28.96 0.20Q27.60 0.20 26.53-0.29Q25.47-0.78 24.87-1.62Q24.28-2.46 24.28-3.39L24.28-3.39L27.35-3.39Q27.37-2.66 27.84-2.32Q28.31-1.98 29.04-1.98L29.04-1.98Q29.72-1.98 30.05-2.26Q30.39-2.53 30.39-2.97ZM41.49 0L41.40-1.14Q40.35 0.20 38.57 0.20L38.57 0.20Q36.84 0.20 35.94-0.82Q35.05-1.83 35.05-3.72L35.05-3.72L35.05-10.57L38.34-10.57L38.34-3.70Q38.34-2.34 39.66-2.34L39.66-2.34Q40.79-2.34 41.27-3.15L41.27-3.15L41.27-10.57L44.58-10.57L44.58 0L41.49 0ZM46.41-10.57L49.49-10.57L49.60-9.33Q50.72-10.76 52.62-10.76L52.62-10.76Q54.62-10.76 55.32-9.17L55.32-9.17Q56.40-10.76 58.43-10.76L58.43-10.76Q61.64-10.76 61.73-6.88L61.73-6.88L61.73 0L58.43 0L58.43-6.67Q58.43-7.48 58.15-7.85Q57.88-8.22 57.16-8.22L57.16-8.22Q56.18-8.22 55.70-7.35L55.70-7.35L55.71-7.22L55.71 0L52.41 0L52.41-6.65Q52.41-7.48 52.15-7.85Q51.88-8.22 51.14-8.22L51.14-8.22Q50.20-8.22 49.70-7.35L49.70-7.35L49.70 0L46.41 0L46.41-10.57ZM72.67 0L71.84-2.66L67.14-2.66L66.32 0L62.66 0L67.87-14.22L71.09-14.22L76.35 0L72.67 0ZM69.48-10.23L67.96-5.30L71.02-5.30L69.48-10.23ZM80.70-10.57L80.70 0L77.40 0L77.40-10.57L80.70-10.57ZM77.21-13.29L77.21-13.29Q77.21-13.99 77.71-14.44Q78.22-14.89 79.03-14.89Q79.84-14.89 80.35-14.44Q80.86-13.99 80.86-13.29Q80.86-12.59 80.35-12.14Q79.84-11.69 79.03-11.69Q78.22-11.69 77.71-12.14Q77.21-12.59 77.21-13.29Z"></path></g></g><style>@media (prefers-color-scheme: light) { :root { filter: none; } }
@media (prefers-color-scheme: dark) { :root { filter: none; } }
</style></svg>